<svg xmlns="http://www.w3.org/2000/svg" width="576" height="48" viewBox="0 0 576 48">
<defs>
 <filter id="g"><feGaussianBlur stdDeviation="1.5"/></filter>
</defs>
<g transform="translate(0 0)">
 <g transform="rotate(-10.0 24 24)">
  <path d="M24 24 L6 18 L10 22 L10 31 Z" fill="#ff4b16" opacity=".9" filter="url(#g)"/>
  <path d="M23 24 L18 20 L9 22 L19 27 Z" fill="#ffb52e"/>
  <path d="M25 11 L34 16 L37 26 L31 35 L20 36 L13 28 L14 18 Z" fill="#292640" stroke="#ff7b19" stroke-width="1.8"/>
  <path d="M25 11 L34 16 L28 23 L14 18 Z" fill="#514a70"/>
  <path d="M28 23 L34 16 L37 26 L31 35 L28 29 Z" fill="#201e37"/>
  <circle cx="27" cy="22" r="3.1" fill="#ff6b19"/>
  <circle cx="27" cy="22" r="1.35" fill="#ffd34a"/>
  <path d="M11 14 l3 2 -2 3 -3-2z" fill="#ff8b22"/>
  <path d="M10 33 l3-2 2 2-3 3z" fill="#4a4567" stroke="#ff7b19" stroke-width=".7"/>
  <path d="M5 22 l3-1 2 2-3 2z" fill="#ffb52e"/>
 </g>
</g><g transform="translate(48 0)">
 <g transform="rotate(-8.2 24 24)">
  <path d="M24 24 L4 16 L8 24 L8 33 Z" fill="#ff4b16" opacity=".9" filter="url(#g)"/>
  <path d="M23 24 L17 20 L10 24 L20 27 Z" fill="#ffb52e"/>
  <path d="M25 11 L34 16 L37 26 L31 35 L20 36 L13 28 L14 18 Z" fill="#292640" stroke="#ff7b19" stroke-width="1.8"/>
  <path d="M25 11 L34 16 L28 23 L14 18 Z" fill="#514a70"/>
  <path d="M28 23 L34 16 L37 26 L31 35 L28 29 Z" fill="#201e37"/>
  <circle cx="28" cy="23" r="3.1" fill="#ff6b19"/>
  <circle cx="28" cy="23" r="1.35" fill="#ffd34a"/>
  <path d="M11 16 l3 2 -2 3 -3-2z" fill="#ff8b22"/>
  <path d="M10 31 l3-2 2 2-3 3z" fill="#4a4567" stroke="#ff7b19" stroke-width=".7"/>
  <path d="M5 24 l3-1 2 2-3 2z" fill="#ffb52e"/>
 </g>
</g><g transform="translate(96 0)">
 <g transform="rotate(-6.4 24 24)">
  <path d="M24 24 L2 14 L10 26 L6 31 Z" fill="#ff4b16" opacity=".9" filter="url(#g)"/>
  <path d="M23 24 L16 20 L9 26 L19 27 Z" fill="#ffb52e"/>
  <path d="M25 11 L34 16 L37 26 L31 35 L20 36 L13 28 L14 18 Z" fill="#292640" stroke="#ff7b19" stroke-width="1.8"/>
  <path d="M25 11 L34 16 L28 23 L14 18 Z" fill="#514a70"/>
  <path d="M28 23 L34 16 L37 26 L31 35 L28 29 Z" fill="#201e37"/>
  <circle cx="27" cy="24" r="3.1" fill="#ff6b19"/>
  <circle cx="27" cy="24" r="1.35" fill="#ffd34a"/>
  <path d="M11 18 l3 2 -2 3 -3-2z" fill="#ff8b22"/>
  <path d="M10 29 l3-2 2 2-3 3z" fill="#4a4567" stroke="#ff7b19" stroke-width=".7"/>
  <path d="M5 26 l3-1 2 2-3 2z" fill="#ffb52e"/>
 </g>
</g><g transform="translate(144 0)">
 <g transform="rotate(-4.6 24 24)">
  <path d="M24 24 L0 18 L8 22 L4 33 Z" fill="#ff4b16" opacity=".9" filter="url(#g)"/>
  <path d="M23 24 L18 20 L10 22 L20 27 Z" fill="#ffb52e"/>
  <path d="M25 11 L34 16 L37 26 L31 35 L20 36 L13 28 L14 18 Z" fill="#292640" stroke="#ff7b19" stroke-width="1.8"/>
  <path d="M25 11 L34 16 L28 23 L14 18 Z" fill="#514a70"/>
  <path d="M28 23 L34 16 L37 26 L31 35 L28 29 Z" fill="#201e37"/>
  <circle cx="28" cy="22" r="3.1" fill="#ff6b19"/>
  <circle cx="28" cy="22" r="1.35" fill="#ffd34a"/>
  <path d="M11 14 l3 2 -2 3 -3-2z" fill="#ff8b22"/>
  <path d="M10 33 l3-2 2 2-3 3z" fill="#4a4567" stroke="#ff7b19" stroke-width=".7"/>
  <path d="M5 22 l3-1 2 2-3 2z" fill="#ffb52e"/>
 </g>
</g><g transform="translate(192 0)">
 <g transform="rotate(-2.8 24 24)">
  <path d="M24 24 L6 16 L10 24 L10 31 Z" fill="#ff4b16" opacity=".9" filter="url(#g)"/>
  <path d="M23 24 L17 20 L9 24 L19 27 Z" fill="#ffb52e"/>
  <path d="M25 11 L34 16 L37 26 L31 35 L20 36 L13 28 L14 18 Z" fill="#292640" stroke="#ff7b19" stroke-width="1.8"/>
  <path d="M25 11 L34 16 L28 23 L14 18 Z" fill="#514a70"/>
  <path d="M28 23 L34 16 L37 26 L31 35 L28 29 Z" fill="#201e37"/>
  <circle cx="27" cy="23" r="3.1" fill="#ff6b19"/>
  <circle cx="27" cy="23" r="1.35" fill="#ffd34a"/>
  <path d="M11 16 l3 2 -2 3 -3-2z" fill="#ff8b22"/>
  <path d="M10 31 l3-2 2 2-3 3z" fill="#4a4567" stroke="#ff7b19" stroke-width=".7"/>
  <path d="M5 24 l3-1 2 2-3 2z" fill="#ffb52e"/>
 </g>
</g><g transform="translate(240 0)">
 <g transform="rotate(-1.0 24 24)">
  <path d="M24 24 L4 14 L8 26 L8 33 Z" fill="#ff4b16" opacity=".9" filter="url(#g)"/>
  <path d="M23 24 L16 20 L10 26 L20 27 Z" fill="#ffb52e"/>
  <path d="M25 11 L34 16 L37 26 L31 35 L20 36 L13 28 L14 18 Z" fill="#292640" stroke="#ff7b19" stroke-width="1.8"/>
  <path d="M25 11 L34 16 L28 23 L14 18 Z" fill="#514a70"/>
  <path d="M28 23 L34 16 L37 26 L31 35 L28 29 Z" fill="#201e37"/>
  <circle cx="28" cy="24" r="3.1" fill="#ff6b19"/>
  <circle cx="28" cy="24" r="1.35" fill="#ffd34a"/>
  <path d="M11 18 l3 2 -2 3 -3-2z" fill="#ff8b22"/>
  <path d="M10 29 l3-2 2 2-3 3z" fill="#4a4567" stroke="#ff7b19" stroke-width=".7"/>
  <path d="M5 26 l3-1 2 2-3 2z" fill="#ffb52e"/>
 </g>
</g><g transform="translate(288 0)">
 <g transform="rotate(0.8 24 24)">
  <path d="M24 24 L2 18 L10 22 L6 31 Z" fill="#ff4b16" opacity=".9" filter="url(#g)"/>
  <path d="M23 24 L18 20 L9 22 L19 27 Z" fill="#ffb52e"/>
  <path d="M25 11 L34 16 L37 26 L31 35 L20 36 L13 28 L14 18 Z" fill="#292640" stroke="#ff7b19" stroke-width="1.8"/>
  <path d="M25 11 L34 16 L28 23 L14 18 Z" fill="#514a70"/>
  <path d="M28 23 L34 16 L37 26 L31 35 L28 29 Z" fill="#201e37"/>
  <circle cx="27" cy="22" r="3.1" fill="#ff6b19"/>
  <circle cx="27" cy="22" r="1.35" fill="#ffd34a"/>
  <path d="M11 14 l3 2 -2 3 -3-2z" fill="#ff8b22"/>
  <path d="M10 33 l3-2 2 2-3 3z" fill="#4a4567" stroke="#ff7b19" stroke-width=".7"/>
  <path d="M5 22 l3-1 2 2-3 2z" fill="#ffb52e"/>
 </g>
</g><g transform="translate(336 0)">
 <g transform="rotate(2.6 24 24)">
  <path d="M24 24 L0 16 L8 24 L4 33 Z" fill="#ff4b16" opacity=".9" filter="url(#g)"/>
  <path d="M23 24 L17 20 L10 24 L20 27 Z" fill="#ffb52e"/>
  <path d="M25 11 L34 16 L37 26 L31 35 L20 36 L13 28 L14 18 Z" fill="#292640" stroke="#ff7b19" stroke-width="1.8"/>
  <path d="M25 11 L34 16 L28 23 L14 18 Z" fill="#514a70"/>
  <path d="M28 23 L34 16 L37 26 L31 35 L28 29 Z" fill="#201e37"/>
  <circle cx="28" cy="23" r="3.1" fill="#ff6b19"/>
  <circle cx="28" cy="23" r="1.35" fill="#ffd34a"/>
  <path d="M11 16 l3 2 -2 3 -3-2z" fill="#ff8b22"/>
  <path d="M10 31 l3-2 2 2-3 3z" fill="#4a4567" stroke="#ff7b19" stroke-width=".7"/>
  <path d="M5 24 l3-1 2 2-3 2z" fill="#ffb52e"/>
 </g>
</g><g transform="translate(384 0)">
 <g transform="rotate(4.4 24 24)">
  <path d="M24 24 L6 14 L10 26 L10 31 Z" fill="#ff4b16" opacity=".9" filter="url(#g)"/>
  <path d="M23 24 L16 20 L9 26 L19 27 Z" fill="#ffb52e"/>
  <path d="M25 11 L34 16 L37 26 L31 35 L20 36 L13 28 L14 18 Z" fill="#292640" stroke="#ff7b19" stroke-width="1.8"/>
  <path d="M25 11 L34 16 L28 23 L14 18 Z" fill="#514a70"/>
  <path d="M28 23 L34 16 L37 26 L31 35 L28 29 Z" fill="#201e37"/>
  <circle cx="27" cy="24" r="3.1" fill="#ff6b19"/>
  <circle cx="27" cy="24" r="1.35" fill="#ffd34a"/>
  <path d="M11 18 l3 2 -2 3 -3-2z" fill="#ff8b22"/>
  <path d="M10 29 l3-2 2 2-3 3z" fill="#4a4567" stroke="#ff7b19" stroke-width=".7"/>
  <path d="M5 26 l3-1 2 2-3 2z" fill="#ffb52e"/>
 </g>
</g><g transform="translate(432 0)">
 <g transform="rotate(6.2 24 24)">
  <path d="M24 24 L4 18 L8 22 L8 33 Z" fill="#ff4b16" opacity=".9" filter="url(#g)"/>
  <path d="M23 24 L18 20 L10 22 L20 27 Z" fill="#ffb52e"/>
  <path d="M25 11 L34 16 L37 26 L31 35 L20 36 L13 28 L14 18 Z" fill="#292640" stroke="#ff7b19" stroke-width="1.8"/>
  <path d="M25 11 L34 16 L28 23 L14 18 Z" fill="#514a70"/>
  <path d="M28 23 L34 16 L37 26 L31 35 L28 29 Z" fill="#201e37"/>
  <circle cx="28" cy="22" r="3.1" fill="#ff6b19"/>
  <circle cx="28" cy="22" r="1.35" fill="#ffd34a"/>
  <path d="M11 14 l3 2 -2 3 -3-2z" fill="#ff8b22"/>
  <path d="M10 33 l3-2 2 2-3 3z" fill="#4a4567" stroke="#ff7b19" stroke-width=".7"/>
  <path d="M5 22 l3-1 2 2-3 2z" fill="#ffb52e"/>
 </g>
</g><g transform="translate(480 0)">
 <g transform="rotate(8.0 24 24)">
  <path d="M24 24 L2 16 L10 24 L6 31 Z" fill="#ff4b16" opacity=".9" filter="url(#g)"/>
  <path d="M23 24 L17 20 L9 24 L19 27 Z" fill="#ffb52e"/>
  <path d="M25 11 L34 16 L37 26 L31 35 L20 36 L13 28 L14 18 Z" fill="#292640" stroke="#ff7b19" stroke-width="1.8"/>
  <path d="M25 11 L34 16 L28 23 L14 18 Z" fill="#514a70"/>
  <path d="M28 23 L34 16 L37 26 L31 35 L28 29 Z" fill="#201e37"/>
  <circle cx="27" cy="23" r="3.1" fill="#ff6b19"/>
  <circle cx="27" cy="23" r="1.35" fill="#ffd34a"/>
  <path d="M11 16 l3 2 -2 3 -3-2z" fill="#ff8b22"/>
  <path d="M10 31 l3-2 2 2-3 3z" fill="#4a4567" stroke="#ff7b19" stroke-width=".7"/>
  <path d="M5 24 l3-1 2 2-3 2z" fill="#ffb52e"/>
 </g>
</g><g transform="translate(528 0)">
 <g transform="rotate(9.8 24 24)">
  <path d="M24 24 L0 14 L8 26 L4 33 Z" fill="#ff4b16" opacity=".9" filter="url(#g)"/>
  <path d="M23 24 L16 20 L10 26 L20 27 Z" fill="#ffb52e"/>
  <path d="M25 11 L34 16 L37 26 L31 35 L20 36 L13 28 L14 18 Z" fill="#292640" stroke="#ff7b19" stroke-width="1.8"/>
  <path d="M25 11 L34 16 L28 23 L14 18 Z" fill="#514a70"/>
  <path d="M28 23 L34 16 L37 26 L31 35 L28 29 Z" fill="#201e37"/>
  <circle cx="28" cy="24" r="3.1" fill="#ff6b19"/>
  <circle cx="28" cy="24" r="1.35" fill="#ffd34a"/>
  <path d="M11 18 l3 2 -2 3 -3-2z" fill="#ff8b22"/>
  <path d="M10 29 l3-2 2 2-3 3z" fill="#4a4567" stroke="#ff7b19" stroke-width=".7"/>
  <path d="M5 26 l3-1 2 2-3 2z" fill="#ffb52e"/>
 </g>
</g>
</svg>